<svg xmlns="http://www.w3.org/2000/svg" width="256" height="256" viewBox="0 0 100 100"><rect width="100" height="100" rx="50" fill="#3926c0"></rect><path d="M13.54 58.23L13.54 58.23Q15.16 58.23 15.98 57.47Q16.79 56.72 16.79 54.94L16.79 54.94L16.79 38.62Q17.05 38.55 17.57 38.46Q18.09 38.36 18.61 38.36L18.61 38.36Q19.68 38.36 20.22 38.77Q20.75 39.18 20.75 40.21L20.75 40.21L20.75 55.27Q20.75 56.94 20.25 58.12Q19.75 59.31 18.90 60.06Q18.05 60.82 16.89 61.17Q15.72 61.53 14.35 61.53L14.35 61.53Q12.28 61.53 11.21 60.97Q10.13 60.42 10.13 59.31L10.13 59.31Q10.13 58.75 10.35 58.32Q10.58 57.90 10.76 57.68L10.76 57.68Q11.39 57.90 12.09 58.07Q12.80 58.23 13.54 58.23ZM34.07 53.35L30.78 53.35L30.78 61.01Q30.48 61.12 30.00 61.21Q29.52 61.30 28.93 61.30L28.93 61.30Q27.78 61.30 27.28 60.88Q26.78 60.45 26.78 59.45L26.78 59.45L26.78 40.36Q26.78 39.73 27.13 39.38Q27.49 39.03 28.11 38.84L28.11 38.84Q29.26 38.44 30.85 38.29Q32.44 38.14 33.85 38.14L33.85 38.14Q38.66 38.14 40.97 40.18Q43.28 42.21 43.28 45.69L43.28 45.69Q43.28 49.17 40.97 51.26Q38.66 53.35 34.07 53.35L34.07 53.35ZM30.74 50.13L33.81 50.13Q36.37 50.13 37.83 49.02Q39.29 47.91 39.29 45.69L39.29 45.69Q39.29 43.47 37.90 42.43Q36.51 41.40 33.92 41.40L33.92 41.40Q33.07 41.40 32.24 41.47Q31.41 41.55 30.74 41.66L30.74 41.66L30.74 50.13ZM50.35 50.20L61.34 55.72Q61.38 55.94 61.38 56.12Q61.38 56.31 61.38 56.49L61.38 56.49Q61.38 57.27 60.95 57.81Q60.53 58.34 59.60 58.34L59.60 58.34Q59.19 58.34 58.75 58.16Q58.31 57.97 57.75 57.68L57.75 57.68L47.17 52.02Q46.91 51.65 46.76 51.18Q46.61 50.72 46.61 50.20L46.61 50.20Q46.61 49.35 46.87 48.87Q47.13 48.39 47.58 48.17L47.58 48.17L59.56 42.06Q60.53 42.36 60.92 42.84Q61.30 43.32 61.30 43.91L61.30 43.91Q61.30 44.73 60.86 45.19Q60.42 45.65 59.64 46.10L59.64 46.10L50.35 50.20ZM73.14 39.03L66.37 64.97Q65.74 65.08 65.15 65.08L65.15 65.08Q63.23 65.08 63.23 63.34L63.23 63.34Q63.23 62.75 63.43 62.06Q63.63 61.38 63.75 60.93L63.75 60.93L70.44 35.00Q70.78 34.92 71.07 34.92Q71.37 34.92 71.66 34.92L71.66 34.92Q72.55 34.92 73.09 35.31Q73.62 35.70 73.62 36.62L73.62 36.62Q73.62 37.22 73.46 37.83Q73.29 38.44 73.14 39.03L73.14 39.03ZM86.13 50.06L75.44 44.65Q75.40 44.43 75.38 44.25Q75.36 44.06 75.36 43.88L75.36 43.88Q75.36 43.14 75.81 42.58Q76.25 42.03 77.14 42.03L77.14 42.03Q77.55 42.03 78.01 42.19Q78.47 42.36 78.99 42.66L78.99 42.66L89.35 48.32Q89.87 49.02 89.87 50.13L89.87 50.13Q89.87 50.98 89.61 51.44Q89.35 51.91 88.94 52.16L88.94 52.16L77.25 58.27Q76.29 57.97 75.90 57.49Q75.51 57.01 75.51 56.38L75.51 56.38Q75.51 55.61 75.94 55.14Q76.36 54.68 77.18 54.27L77.18 54.27L86.13 50.06Z" fill="#fff"></path></svg>